solid shotglass 01
facet normal -0.859648003443629 -0.49631800619650307 -0.12113524219033306
  outer loop
    vertex -21.823840175367863 -12.599999999999989 59.00000000000001
    vertex -12.727922061357862 -12.727922061357843 0.0
    vertex -17.81909088590101 -17.81909088590099 59.00000000000001
  endloop
endfacet
facet normal -0.7018996556130693 -0.7018996556130684 -0.12113524219033305
  outer loop
    vertex -12.727922061357862 -12.727922061357843 0.0
    vertex -21.823840175367863 -12.599999999999989 59.00000000000001
    vertex -15.5884572681199 -8.999999999999995 0.0
  endloop
endfacet
facet normal -6.300418559471152e-17 0.9926360123930069 -0.12113524219033292
  outer loop
    vertex 2.8199664825478976e-14 25.2 59.00000000000001
    vertex 4.658742811845376 17.38666487320323 0.0
    vertex 0.0 18.00000000000001 0.0
  endloop
endfacet
facet normal 0.256913104861933 0.9588127604750006 -0.12113524219033298
  outer loop
    vertex 4.658742811845376 17.38666487320323 0.0
    vertex 2.8199664825478976e-14 25.2 59.00000000000001
    vertex 6.5222399365835475 24.341330822484522 59.00000000000001
  endloop
endfacet
facet normal 0.0 -0.9926360123930068 -0.121135242190333
  outer loop
    vertex -1.6919798895287383e-14 -25.2 59.00000000000001
    vertex -4.6587428118453875 -17.38666487320323 0.0
    vertex -2.8199664825478975e-15 -18.0 0.0
  endloop
endfacet
facet normal -0.25691310486193264 -0.9588127604750009 -0.12113524219033303
  outer loop
    vertex -4.6587428118453875 -17.38666487320323 0.0
    vertex -1.6919798895287383e-14 -25.2 59.00000000000001
    vertex -6.522239936583542 -24.341330822484522 59.00000000000001
  endloop
endfacet
facet normal -0.5357992453815207 0.14356697510518615 0.8320502943378723
  outer loop
    vertex -22.892442083050742 6.134011368929775 60.0
    vertex -21.823840175367824 12.600000000000044 59.00000000000001
    vertex -24.341330822484522 6.522239936583542 59.00000000000001
  endloop
endfacet
facet normal -0.48038446141522756 0.27735009811259514 0.8320502943378699
  outer loop
    vertex -21.823840175367824 12.600000000000044 59.00000000000001
    vertex -22.892442083050742 6.134011368929775 60.0
    vertex -20.524802069691013 11.850000000000012 60.0
  endloop
endfacet
facet normal 0.49631800619650346 0.8596480034436287 -0.12113524219033299
  outer loop
    vertex 12.600000000000016 21.82384017536784 59.00000000000001
    vertex 12.727922061357859 12.727922061357864 0.0
    vertex 9.0 15.588457268119894 0.0
  endloop
endfacet
facet normal 0.7018996556130689 0.7018996556130689 -0.121135242190333
  outer loop
    vertex 12.727922061357859 12.727922061357864 0.0
    vertex 12.600000000000016 21.82384017536784 59.00000000000001
    vertex 17.81909088590101 17.819090885901 59.00000000000001
  endloop
endfacet
facet normal 0.8596480034436288 -0.4963180061965033 -0.12113524219033305
  outer loop
    vertex 15.588457268119889 -9.000000000000005 0.0
    vertex 24.341330822484526 -6.52223993658352 59.00000000000001
    vertex 21.823840175367852 -12.6 59.00000000000001
  endloop
endfacet
facet normal 0.9588127604750009 -0.25691310486193236 -0.12113524219033311
  outer loop
    vertex 24.341330822484526 -6.52223993658352 59.00000000000001
    vertex 15.588457268119889 -9.000000000000005 0.0
    vertex 17.386664873203223 -4.6587428118453875 0.0
  endloop
endfacet
facet normal -0.4963180061965044 -0.8596480034436284 -0.12113524219033302
  outer loop
    vertex -12.600000000000016 -21.82384017536784 59.00000000000001
    vertex -12.727922061357862 -12.727922061357843 0.0
    vertex -9.000000000000009 -15.588457268119894 0.0
  endloop
endfacet
facet normal -0.7018996556130693 -0.7018996556130684 -0.12113524219033305
  outer loop
    vertex -12.727922061357862 -12.727922061357843 0.0
    vertex -12.600000000000016 -21.82384017536784 59.00000000000001
    vertex -17.81909088590101 -17.81909088590099 59.00000000000001
  endloop
endfacet
facet normal -0.27735009811259786 -0.48038446141522934 0.8320502943378678
  outer loop
    vertex -12.600000000000016 -21.82384017536784 59.00000000000001
    vertex -16.75843071412107 -16.758430714121065 60.0
    vertex -17.81909088590101 -17.81909088590099 59.00000000000001
  endloop
endfacet
facet normal -0.39223227027633983 -0.3922322702763394 0.8320502943378708
  outer loop
    vertex -16.75843071412107 -16.758430714121065 60.0
    vertex -12.600000000000016 -21.82384017536784 59.00000000000001
    vertex -11.849999999999916 -20.524802069691088 60.0
  endloop
endfacet
facet normal 0.7018996556130692 -0.7018996556130686 -0.12113524219033298
  outer loop
    vertex 17.819090885900994 -17.819090885901 59.00000000000001
    vertex 8.99999999999999 -15.588457268119905 0.0
    vertex 12.727922061357859 -12.727922061357864 0.0
  endloop
endfacet
facet normal 0.49631800619650257 -0.8596480034436293 -0.12113524219033305
  outer loop
    vertex 8.99999999999999 -15.588457268119905 0.0
    vertex 17.819090885900994 -17.819090885901 59.00000000000001
    vertex 12.599999999999994 -21.823840175367867 59.00000000000001
  endloop
endfacet
facet normal -0.2773500981125961 0.480384461415236 0.8320502943378645
  outer loop
    vertex -11.849999999999831 20.52480206969116 60.0
    vertex -6.522239936583485 24.341330822484522 59.00000000000001
    vertex -12.599999999999962 21.823840175367888 59.00000000000001
  endloop
endfacet
facet normal -0.14356697510518912 0.5357992453815384 0.8320502943378603
  outer loop
    vertex -6.522239936583485 24.341330822484522 59.00000000000001
    vertex -11.849999999999831 20.52480206969116 60.0
    vertex -6.134011368929597 22.892442083050856 60.0
  endloop
endfacet
facet normal -0.5547001962251839 2.0296982513649606e-15 0.8320502943378738
  outer loop
    vertex -23.69999999999983 6.485922909860164e-14 60.0
    vertex -24.341330822484522 6.522239936583542 59.00000000000001
    vertex -25.200000000000003 1.127986593019159e-14 59.00000000000001
  endloop
endfacet
facet normal -0.5357992453815213 0.14356697510518307 0.8320502943378724
  outer loop
    vertex -24.341330822484522 6.522239936583542 59.00000000000001
    vertex -23.69999999999983 6.485922909860164e-14 60.0
    vertex -22.892442083050742 6.134011368929775 60.0
  endloop
endfacet
facet normal 0.25691310486193103 -0.9588127604750011 -0.12113524219033302
  outer loop
    vertex 6.522239936583514 -24.341330822484522 59.00000000000001
    vertex -2.8199664825478975e-15 -18.0 0.0
    vertex 4.658742811845364 -17.38666487320323 0.0
  endloop
endfacet
facet normal 4.4105999060746796e-17 -0.9926360123930068 -0.12113524219033303
  outer loop
    vertex -2.8199664825478975e-15 -18.0 0.0
    vertex 6.522239936583514 -24.341330822484522 59.00000000000001
    vertex -1.6919798895287383e-14 -25.2 59.00000000000001
  endloop
endfacet
facet normal -0.3922322702763411 0.3922322702763448 0.8320502943378674
  outer loop
    vertex -16.758430714121 16.758430714121154 60.0
    vertex -12.599999999999962 21.823840175367888 59.00000000000001
    vertex -17.819090885900962 17.819090885901023 59.00000000000001
  endloop
endfacet
facet normal -0.27735009811259975 0.4803844614152339 0.8320502943378645
  outer loop
    vertex -12.599999999999962 21.823840175367888 59.00000000000001
    vertex -16.758430714121 16.758430714121154 60.0
    vertex -11.849999999999831 20.52480206969116 60.0
  endloop
endfacet
facet normal -0.5357992453815191 -0.14356697510518313 0.8320502943378738
  outer loop
    vertex -24.341330822484526 -6.522239936583508 59.00000000000001
    vertex -23.69999999999983 6.485922909860164e-14 60.0
    vertex -25.200000000000003 1.127986593019159e-14 59.00000000000001
  endloop
endfacet
facet normal -0.5547001962251839 2.0296982513649606e-15 0.8320502943378738
  outer loop
    vertex -23.69999999999983 6.485922909860164e-14 60.0
    vertex -24.341330822484526 -6.522239936583508 59.00000000000001
    vertex -22.892442083050764 -6.134011368929659 60.0
  endloop
endfacet
facet normal -1.470493351790126e-15 -0.5547001962252036 0.8320502943378607
  outer loop
    vertex -1.6919798895287383e-14 -25.2 59.00000000000001
    vertex -6.134011368929685 -22.89244208305081 60.0
    vertex -6.522239936583542 -24.341330822484522 59.00000000000001
  endloop
endfacet
facet normal -0.14356697510518607 -0.5357992453815328 0.8320502943378646
  outer loop
    vertex -6.134011368929685 -22.89244208305081 60.0
    vertex -1.6919798895287383e-14 -25.2 59.00000000000001
    vertex 3.101963130802687e-14 -23.699999999999903 60.0
  endloop
endfacet
facet normal 0.4963180061965026 -0.8596480034436292 -0.12113524219033305
  outer loop
    vertex 12.599999999999994 -21.823840175367867 59.00000000000001
    vertex 4.658742811845364 -17.38666487320323 0.0
    vertex 8.99999999999999 -15.588457268119905 0.0
  endloop
endfacet
facet normal 0.25691310486193114 -0.9588127604750012 -0.12113524219033302
  outer loop
    vertex 4.658742811845364 -17.38666487320323 0.0
    vertex 12.599999999999994 -21.823840175367867 59.00000000000001
    vertex 6.522239936583514 -24.341330822484522 59.00000000000001
  endloop
endfacet
facet normal 0.53579924538156 -0.14356697510519364 0.8320502943378458
  outer loop
    vertex 24.341330822484526 -6.52223993658352 59.00000000000001
    vertex 23.699999999999996 -4.511946372076636e-14 60.0
    vertex 22.892442083050906 -6.134011368929763 60.0
  endloop
endfacet
facet normal 0.5547001962252269 -1.8308706675577864e-15 0.8320502943378454
  outer loop
    vertex 23.699999999999996 -4.511946372076636e-14 60.0
    vertex 24.341330822484526 -6.52223993658352 59.00000000000001
    vertex 25.200000000000003 1.127986593019159e-14 59.00000000000001
  endloop
endfacet
facet normal 0.48038446141525654 -0.27735009811261213 0.8320502943378473
  outer loop
    vertex 21.823840175367852 -12.6 59.00000000000001
    vertex 22.892442083050906 -6.134011368929763 60.0
    vertex 20.52480206969118 -11.849999999999996 60.0
  endloop
endfacet
facet normal 0.5357992453815597 -0.14356697510519514 0.8320502943378458
  outer loop
    vertex 22.892442083050906 -6.134011368929763 60.0
    vertex 21.823840175367852 -12.6 59.00000000000001
    vertex 24.341330822484526 -6.52223993658352 59.00000000000001
  endloop
endfacet
facet normal -0.14356697510518826 -0.5357992453815322 0.8320502943378646
  outer loop
    vertex -6.522239936583542 -24.341330822484522 59.00000000000001
    vertex -11.849999999999916 -20.524802069691088 60.0
    vertex -12.600000000000016 -21.82384017536784 59.00000000000001
  endloop
endfacet
facet normal -0.27735009811259626 -0.4803844614152303 0.8320502943378678
  outer loop
    vertex -11.849999999999916 -20.524802069691088 60.0
    vertex -6.522239936583542 -24.341330822484522 59.00000000000001
    vertex -6.134011368929685 -22.89244208305081 60.0
  endloop
endfacet
facet normal -0.39223227027634006 -0.392232270276339 0.8320502943378706
  outer loop
    vertex -17.81909088590101 -17.81909088590099 59.00000000000001
    vertex -20.524802069691063 -11.849999999999905 60.0
    vertex -21.823840175367863 -12.599999999999989 59.00000000000001
  endloop
endfacet
facet normal -0.4803844614152243 -0.27735009811259226 0.8320502943378726
  outer loop
    vertex -20.524802069691063 -11.849999999999905 60.0
    vertex -17.81909088590101 -17.81909088590099 59.00000000000001
    vertex -16.75843071412107 -16.758430714121065 60.0
  endloop
endfacet
facet normal 0.14356697510518784 -0.5357992453815441 0.832050294337857
  outer loop
    vertex 6.522239936583514 -24.341330822484522 59.00000000000001
    vertex 11.849999999999996 -20.524802069691138 60.0
    vertex 6.134011368929758 -22.892442083050838 60.0
  endloop
endfacet
facet normal 0.2773500981126074 -0.48038446141524843 0.8320502943378537
  outer loop
    vertex 11.849999999999996 -20.524802069691138 60.0
    vertex 6.522239936583514 -24.341330822484522 59.00000000000001
    vertex 12.599999999999994 -21.823840175367867 59.00000000000001
  endloop
endfacet
facet normal -0.48038446141522606 0.27735009811259737 0.8320502943378698
  outer loop
    vertex -20.524802069691013 11.850000000000012 60.0
    vertex -17.819090885900962 17.819090885901023 59.00000000000001
    vertex -21.823840175367824 12.600000000000044 59.00000000000001
  endloop
endfacet
facet normal -0.3922322702763436 0.3922322702763423 0.8320502943378674
  outer loop
    vertex -17.819090885900962 17.819090885901023 59.00000000000001
    vertex -20.524802069691013 11.850000000000012 60.0
    vertex -16.758430714121 16.758430714121154 60.0
  endloop
endfacet
facet normal -0.25691310486193103 0.9588127604750012 -0.12113524219033295
  outer loop
    vertex -6.522239936583485 24.341330822484522 59.00000000000001
    vertex 0.0 18.00000000000001 0.0
    vertex -4.658742811845371 17.38666487320323 0.0
  endloop
endfacet
facet normal -1.4996039680653905e-16 0.9926360123930068 -0.12113524219033288
  outer loop
    vertex 0.0 18.00000000000001 0.0
    vertex -6.522239936583485 24.341330822484522 59.00000000000001
    vertex 2.8199664825478976e-14 25.2 59.00000000000001
  endloop
endfacet
facet normal 0.39223227027636576 0.392232270276361 0.8320502943378482
  outer loop
    vertex 16.75843071412124 16.758430714121086 60.0
    vertex 12.600000000000016 21.82384017536784 59.00000000000001
    vertex 11.850000000000074 20.524802069691113 60.0
  endloop
endfacet
facet normal 0.27735009811260813 0.4803844614152533 0.8320502943378506
  outer loop
    vertex 12.600000000000016 21.82384017536784 59.00000000000001
    vertex 16.75843071412124 16.758430714121086 60.0
    vertex 17.81909088590101 17.819090885901 59.00000000000001
  endloop
endfacet
facet normal 0.277350098112612 0.48038446141525115 0.8320502943378505
  outer loop
    vertex 11.850000000000074 20.524802069691113 60.0
    vertex 6.5222399365835475 24.341330822484522 59.00000000000001
    vertex 6.1340113689298486 22.892442083050838 60.0
  endloop
endfacet
facet normal 0.14356697510518932 0.535799245381549 0.8320502943378535
  outer loop
    vertex 6.5222399365835475 24.341330822484522 59.00000000000001
    vertex 11.850000000000074 20.524802069691113 60.0
    vertex 12.600000000000016 21.82384017536784 59.00000000000001
  endloop
endfacet
facet normal -0.14356697510518457 0.5357992453815397 0.8320502943378603
  outer loop
    vertex -6.134011368929597 22.892442083050856 60.0
    vertex 2.8199664825478976e-14 25.2 59.00000000000001
    vertex -6.522239936583485 24.341330822484522 59.00000000000001
  endloop
endfacet
facet normal -2.227154979410288e-15 0.5547001962252096 0.8320502943378569
  outer loop
    vertex 2.8199664825478976e-14 25.2 59.00000000000001
    vertex -6.134011368929597 22.892442083050856 60.0
    vertex 1.3535839116229907e-13 23.69999999999992 60.0
  endloop
endfacet
facet normal 0.5547001962252269 -1.8308706675577864e-15 0.8320502943378454
  outer loop
    vertex 23.699999999999996 -4.511946372076636e-14 60.0
    vertex 24.341330822484522 6.522239936583542 59.00000000000001
    vertex 22.89244208305093 6.134011368929696 60.0
  endloop
endfacet
facet normal 0.5357992453815602 0.14356697510519564 0.8320502943378452
  outer loop
    vertex 24.341330822484522 6.522239936583542 59.00000000000001
    vertex 23.699999999999996 -4.511946372076636e-14 60.0
    vertex 25.200000000000003 1.127986593019159e-14 59.00000000000001
  endloop
endfacet
facet normal 0.14356697510518784 -0.5357992453815441 0.832050294337857
  outer loop
    vertex 6.522239936583514 -24.341330822484522 59.00000000000001
    vertex 3.101963130802687e-14 -23.699999999999903 60.0
    vertex -1.6919798895287383e-14 -25.2 59.00000000000001
  endloop
endfacet
facet normal 9.195775751082077e-16 -0.5547001962252036 0.8320502943378608
  outer loop
    vertex 3.101963130802687e-14 -23.699999999999903 60.0
    vertex 6.522239936583514 -24.341330822484522 59.00000000000001
    vertex 6.134011368929758 -22.892442083050838 60.0
  endloop
endfacet
facet normal -0.48038446141522423 -0.2773500981125924 0.8320502943378727
  outer loop
    vertex -21.823840175367863 -12.599999999999989 59.00000000000001
    vertex -22.892442083050764 -6.134011368929659 60.0
    vertex -24.341330822484526 -6.522239936583508 59.00000000000001
  endloop
endfacet
facet normal -0.5357992453815196 -0.14356697510518182 0.8320502943378737
  outer loop
    vertex -22.892442083050764 -6.134011368929659 60.0
    vertex -21.823840175367863 -12.599999999999989 59.00000000000001
    vertex -20.524802069691063 -11.849999999999905 60.0
  endloop
endfacet
facet normal -0.9926360123930068 1.890125567841345e-16 -0.12113524219033303
  outer loop
    vertex -25.200000000000003 1.127986593019159e-14 59.00000000000001
    vertex -17.38666487320323 4.6587428118453875 0.0
    vertex -18.0 0.0 0.0
  endloop
endfacet
facet normal -0.9588127604750006 0.2569131048619332 -0.12113524219033305
  outer loop
    vertex -17.38666487320323 4.6587428118453875 0.0
    vertex -25.200000000000003 1.127986593019159e-14 59.00000000000001
    vertex -24.341330822484522 6.522239936583542 59.00000000000001
  endloop
endfacet
facet normal 0.27735009811260586 -0.4803844614152492 0.8320502943378537
  outer loop
    vertex 12.599999999999994 -21.823840175367867 59.00000000000001
    vertex 16.75843071412116 -16.758430714121143 60.0
    vertex 11.849999999999996 -20.524802069691138 60.0
  endloop
endfacet
facet normal 0.39223227027636126 -0.39223227027636115 0.8320502943378502
  outer loop
    vertex 16.75843071412116 -16.758430714121143 60.0
    vertex 12.599999999999994 -21.823840175367867 59.00000000000001
    vertex 17.819090885900994 -17.819090885901 59.00000000000001
  endloop
endfacet
facet normal 0.5357992453815611 0.14356697510519234 0.8320502943378454
  outer loop
    vertex 22.89244208305093 6.134011368929696 60.0
    vertex 21.823840175367852 12.6 59.00000000000001
    vertex 20.52480206969123 11.849999999999927 60.0
  endloop
endfacet
facet normal 0.48038446141525765 0.2773500981126141 0.832050294337846
  outer loop
    vertex 21.823840175367852 12.6 59.00000000000001
    vertex 22.89244208305093 6.134011368929696 60.0
    vertex 24.341330822484522 6.522239936583542 59.00000000000001
  endloop
endfacet
facet normal 0.7018996556130689 0.7018996556130689 -0.121135242190333
  outer loop
    vertex 12.727922061357859 12.727922061357864 0.0
    vertex 21.823840175367852 12.6 59.00000000000001
    vertex 15.5884572681199 9.000000000000005 0.0
  endloop
endfacet
facet normal 0.859648003443629 0.49631800619650296 -0.12113524219033299
  outer loop
    vertex 21.823840175367852 12.6 59.00000000000001
    vertex 12.727922061357859 12.727922061357864 0.0
    vertex 17.81909088590101 17.819090885901 59.00000000000001
  endloop
endfacet
facet normal 0.4803844614152598 0.2773500981126105 0.8320502943378462
  outer loop
    vertex 20.52480206969123 11.849999999999927 60.0
    vertex 17.81909088590101 17.819090885901 59.00000000000001
    vertex 16.75843071412124 16.758430714121086 60.0
  endloop
endfacet
facet normal 0.39223227027636187 0.3922322702763648 0.8320502943378482
  outer loop
    vertex 17.81909088590101 17.819090885901 59.00000000000001
    vertex 20.52480206969123 11.849999999999927 60.0
    vertex 21.823840175367852 12.6 59.00000000000001
  endloop
endfacet
facet normal 0.9588127604750009 0.25691310486193236 -0.12113524219033309
  outer loop
    vertex 17.38666487320323 4.658742811845364 0.0
    vertex 25.200000000000003 1.127986593019159e-14 59.00000000000001
    vertex 18.0 0.0 0.0
  endloop
endfacet
facet normal 0.9926360123930068 2.6101734032094765e-16 -0.12113524219033309
  outer loop
    vertex 25.200000000000003 1.127986593019159e-14 59.00000000000001
    vertex 17.38666487320323 4.658742811845364 0.0
    vertex 24.341330822484522 6.522239936583542 59.00000000000001
  endloop
endfacet
facet normal 3.3634999594047985e-15 0.5547001962252096 0.8320502943378568
  outer loop
    vertex 1.3535839116229907e-13 23.69999999999992 60.0
    vertex 6.5222399365835475 24.341330822484522 59.00000000000001
    vertex 2.8199664825478976e-14 25.2 59.00000000000001
  endloop
endfacet
facet normal 0.14356697510518932 0.535799245381549 0.8320502943378535
  outer loop
    vertex 6.5222399365835475 24.341330822484522 59.00000000000001
    vertex 1.3535839116229907e-13 23.69999999999992 60.0
    vertex 6.1340113689298486 22.892442083050838 60.0
  endloop
endfacet
facet normal -0.958812760475001 -0.2569131048619316 -0.12113524219033302
  outer loop
    vertex -24.341330822484526 -6.522239936583508 59.00000000000001
    vertex -15.5884572681199 -8.999999999999995 0.0
    vertex -21.823840175367863 -12.599999999999989 59.00000000000001
  endloop
endfacet
facet normal -0.8596480034436289 -0.4963180061965029 -0.12113524219033303
  outer loop
    vertex -15.5884572681199 -8.999999999999995 0.0
    vertex -24.341330822484526 -6.522239936583508 59.00000000000001
    vertex -17.386664873203234 -4.658742811845364 0.0
  endloop
endfacet
facet normal 0.7018996556130692 -0.7018996556130686 -0.12113524219033299
  outer loop
    vertex 12.727922061357859 -12.727922061357864 0.0
    vertex 21.823840175367852 -12.6 59.00000000000001
    vertex 17.819090885900994 -17.819090885901 59.00000000000001
  endloop
endfacet
facet normal 0.8596480034436288 -0.49631800619650324 -0.12113524219033303
  outer loop
    vertex 21.823840175367852 -12.6 59.00000000000001
    vertex 12.727922061357859 -12.727922061357864 0.0
    vertex 15.588457268119889 -9.000000000000005 0.0
  endloop
endfacet
facet normal -0.9588127604750005 0.2569131048619331 -0.121135242190333
  outer loop
    vertex -24.341330822484522 6.522239936583542 59.00000000000001
    vertex -15.588457268119894 9.000000000000005 0.0
    vertex -17.38666487320323 4.6587428118453875 0.0
  endloop
endfacet
facet normal -0.8596480034436278 0.496318006196505 -0.12113524219033295
  outer loop
    vertex -15.588457268119894 9.000000000000005 0.0
    vertex -24.341330822484522 6.522239936583542 59.00000000000001
    vertex -21.823840175367824 12.600000000000044 59.00000000000001
  endloop
endfacet
facet normal 0.2569131048619331 0.9588127604750007 -0.12113524219033302
  outer loop
    vertex 6.5222399365835475 24.341330822484522 59.00000000000001
    vertex 9.0 15.588457268119894 0.0
    vertex 4.658742811845376 17.38666487320323 0.0
  endloop
endfacet
facet normal 0.4963180061965034 0.8596480034436287 -0.121135242190333
  outer loop
    vertex 9.0 15.588457268119894 0.0
    vertex 6.5222399365835475 24.341330822484522 59.00000000000001
    vertex 12.600000000000016 21.82384017536784 59.00000000000001
  endloop
endfacet
facet normal -0.25691310486193264 -0.9588127604750007 -0.12113524219033303
  outer loop
    vertex -6.522239936583542 -24.341330822484522 59.00000000000001
    vertex -9.000000000000009 -15.588457268119894 0.0
    vertex -4.6587428118453875 -17.38666487320323 0.0
  endloop
endfacet
facet normal -0.49631800619650435 -0.8596480034436282 -0.12113524219033302
  outer loop
    vertex -9.000000000000009 -15.588457268119894 0.0
    vertex -6.522239936583542 -24.341330822484522 59.00000000000001
    vertex -12.600000000000016 -21.82384017536784 59.00000000000001
  endloop
endfacet
facet normal -0.4963180061965019 0.8596480034436296 -0.12113524219033307
  outer loop
    vertex -12.599999999999962 21.823840175367888 59.00000000000001
    vertex -4.658742811845371 17.38666487320323 0.0
    vertex -8.999999999999995 15.588457268119894 0.0
  endloop
endfacet
facet normal -0.2569131048619311 0.9588127604750012 -0.12113524219033293
  outer loop
    vertex -4.658742811845371 17.38666487320323 0.0
    vertex -12.599999999999962 21.823840175367888 59.00000000000001
    vertex -6.522239936583485 24.341330822484522 59.00000000000001
  endloop
endfacet
facet normal 0.8596480034436289 0.4963180061965029 -0.12113524219033299
  outer loop
    vertex 15.5884572681199 9.000000000000005 0.0
    vertex 24.341330822484522 6.522239936583542 59.00000000000001
    vertex 17.38666487320323 4.658742811845364 0.0
  endloop
endfacet
facet normal 0.9588127604750007 0.2569131048619324 -0.12113524219033305
  outer loop
    vertex 24.341330822484522 6.522239936583542 59.00000000000001
    vertex 15.5884572681199 9.000000000000005 0.0
    vertex 21.823840175367852 12.6 59.00000000000001
  endloop
endfacet
facet normal -0.5357992453815622 -0.1435669751051942 0.8320502943378442
  outer loop
    vertex 21.44355334361732 5.74578280127594 59.00000000000001
    vertex 20.52480206969123 11.849999999999927 60.0
    vertex 19.225763964014558 11.099999999999957 59.00000000000001
  endloop
endfacet
facet normal -0.4803844614152612 -0.2773500981126127 0.8320502943378446
  outer loop
    vertex 20.52480206969123 11.849999999999927 60.0
    vertex 21.44355334361732 5.74578280127594 59.00000000000001
    vertex 22.89244208305093 6.134011368929696 60.0
  endloop
endfacet
facet normal -0.9926360123930068 1.890125567841345e-16 -0.12113524219033303
  outer loop
    vertex -25.200000000000003 1.127986593019159e-14 59.00000000000001
    vertex -17.386664873203234 -4.658742811845364 0.0
    vertex -24.341330822484526 -6.522239936583508 59.00000000000001
  endloop
endfacet
facet normal -0.958812760475001 -0.2569131048619316 -0.12113524219033303
  outer loop
    vertex -17.386664873203234 -4.658742811845364 0.0
    vertex -25.200000000000003 1.127986593019159e-14 59.00000000000001
    vertex -18.0 0.0 0.0
  endloop
endfacet
facet normal 0.9588127604750007 -0.2569131048619324 -0.1211352421903331
  outer loop
    vertex 17.386664873203223 -4.6587428118453875 0.0
    vertex 25.200000000000003 1.127986593019159e-14 59.00000000000001
    vertex 24.341330822484526 -6.52223993658352 59.00000000000001
  endloop
endfacet
facet normal 0.9926360123930068 2.6101734032094765e-16 -0.12113524219033309
  outer loop
    vertex 25.200000000000003 1.127986593019159e-14 59.00000000000001
    vertex 17.386664873203223 -4.6587428118453875 0.0
    vertex 18.0 0.0 0.0
  endloop
endfacet
facet normal -0.7018996556130682 0.7018996556130696 -0.12113524219033292
  outer loop
    vertex -17.819090885900962 17.819090885901023 59.00000000000001
    vertex -8.999999999999995 15.588457268119894 0.0
    vertex -12.727922061357857 12.727922061357864 0.0
  endloop
endfacet
facet normal -0.49631800619650207 0.8596480034436297 -0.1211352421903331
  outer loop
    vertex -8.999999999999995 15.588457268119894 0.0
    vertex -17.819090885900962 17.819090885901023 59.00000000000001
    vertex -12.599999999999962 21.823840175367888 59.00000000000001
  endloop
endfacet
facet normal -0.9543067530337745 0.2557057238069686 0.15463894699101205
  outer loop
    vertex 21.443553343617303 -5.745782801275974 59.00000000000001
    vertex 12.990381056766587 -7.499999999999964 13.000000000000004
    vertex 19.225763964014526 -11.09999999999998 59.00000000000001
  endloop
endfacet
facet normal -0.8556080276944181 0.4939855251101789 0.15463894699101197
  outer loop
    vertex 12.990381056766587 -7.499999999999964 13.000000000000004
    vertex 21.443553343617303 -5.745782801275974 59.00000000000001
    vertex 14.488887394336018 -3.8822856765377964 13.000000000000004
  endloop
endfacet
facet normal -0.49398552511017646 0.8556080276944192 0.1546389469910121
  outer loop
    vertex 11.10000000000002 -19.225763964014472 59.00000000000001
    vertex 10.606601717798233 -10.60660171779815 13.000000000000004
    vertex 7.500000000000026 -12.990381056766504 13.000000000000004
  endloop
endfacet
facet normal -0.6986010292268073 0.6986010292268088 0.154638946991012
  outer loop
    vertex 10.606601717798233 -10.60660171779815 13.000000000000004
    vertex 11.10000000000002 -19.225763964014472 59.00000000000001
    vertex 15.697770542341347 -15.697770542341308 59.00000000000001
  endloop
endfacet
facet normal 0.698601029226808 0.6986010292268081 0.154638946991012
  outer loop
    vertex -10.606601717798082 -10.606601717798139 13.000000000000004
    vertex -19.225763964014376 -11.099999999999957 59.00000000000001
    vertex -15.697770542341207 -15.697770542341287 59.00000000000001
  endloop
endfacet
facet normal 0.8556080276944187 0.49398552511017757 0.15463894699101202
  outer loop
    vertex -19.225763964014376 -11.099999999999957 59.00000000000001
    vertex -10.606601717798082 -10.606601717798139 13.000000000000004
    vertex -12.990381056766427 -7.499999999999941 13.000000000000004
  endloop
endfacet
facet normal -0.2557057238069656 0.9543067530337753 0.15463894699101208
  outer loop
    vertex 5.745782801276002 -21.443553343617225 59.00000000000001
    vertex 7.500000000000026 -12.990381056766504 13.000000000000004
    vertex 3.8822856765378586 -14.488887394335935 13.000000000000004
  endloop
endfacet
facet normal -0.49398552511017646 0.8556080276944192 0.1546389469910121
  outer loop
    vertex 7.500000000000026 -12.990381056766504 13.000000000000004
    vertex 5.745782801276002 -21.443553343617225 59.00000000000001
    vertex 11.10000000000002 -19.225763964014472 59.00000000000001
  endloop
endfacet
facet normal 0.9543067530337749 0.25570572380696643 0.154638946991012
  outer loop
    vertex -14.488887394335864 -3.882285676537774 13.000000000000004
    vertex -22.19999999999983 1.127986593019159e-14 59.00000000000001
    vertex -21.44355334361715 -5.745782801275928 59.00000000000001
  endloop
endfacet
facet normal 0.9879710502203549 -5.324912491534074e-16 0.15463894699101202
  outer loop
    vertex -22.19999999999983 1.127986593019159e-14 59.00000000000001
    vertex -14.488887394335864 -3.882285676537774 13.000000000000004
    vertex -14.999999999999831 1.127986593019159e-14 13.000000000000004
  endloop
endfacet
facet normal 0.493985525110177 -0.8556080276944192 0.1546389469910119
  outer loop
    vertex -11.099999999999861 19.225763964014472 59.00000000000001
    vertex -10.606601717798064 10.606601717798172 13.000000000000004
    vertex -7.499999999999865 12.990381056766525 13.000000000000004
  endloop
endfacet
facet normal 0.6986010292268071 -0.6986010292268091 0.1546389469910119
  outer loop
    vertex -10.606601717798064 10.606601717798172 13.000000000000004
    vertex -11.099999999999861 19.225763964014472 59.00000000000001
    vertex -15.697770542341202 15.697770542341308 59.00000000000001
  endloop
endfacet
facet normal 0.698601029226808 0.6986010292268082 0.154638946991012
  outer loop
    vertex -15.697770542341207 -15.697770542341287 59.00000000000001
    vertex -7.4999999999998845 -12.990381056766491 13.000000000000004
    vertex -10.606601717798082 -10.606601717798139 13.000000000000004
  endloop
endfacet
facet normal 0.49398552511017824 0.8556080276944183 0.15463894699101194
  outer loop
    vertex -7.4999999999998845 -12.990381056766491 13.000000000000004
    vertex -15.697770542341207 -15.697770542341287 59.00000000000001
    vertex -11.099999999999872 -19.22576396401445 59.00000000000001
  endloop
endfacet
facet normal 0.6986010292268071 -0.6986010292268091 0.1546389469910119
  outer loop
    vertex -10.606601717798064 10.606601717798172 13.000000000000004
    vertex -19.225763964014376 11.09999999999998 59.00000000000001
    vertex -12.990381056766418 7.499999999999987 13.000000000000004
  endloop
endfacet
facet normal 0.8556080276944187 -0.49398552511017796 0.154638946991012
  outer loop
    vertex -19.225763964014376 11.09999999999998 59.00000000000001
    vertex -10.606601717798064 10.606601717798172 13.000000000000004
    vertex -15.697770542341202 15.697770542341308 59.00000000000001
  endloop
endfacet
facet normal -0.4803844614152604 -0.27735009811261413 0.8320502943378446
  outer loop
    vertex 19.225763964014558 11.099999999999957 59.00000000000001
    vertex 16.75843071412124 16.758430714121086 60.0
    vertex 15.697770542341388 15.697770542341287 59.00000000000001
  endloop
endfacet
facet normal -0.39223227027636837 -0.39223227027636604 0.8320502943378447
  outer loop
    vertex 16.75843071412124 16.758430714121086 60.0
    vertex 19.225763964014558 11.099999999999957 59.00000000000001
    vertex 20.52480206969123 11.849999999999927 60.0
  endloop
endfacet
facet normal -0.39223227027636703 -0.3922322702763672 0.8320502943378446
  outer loop
    vertex 15.697770542341388 15.697770542341287 59.00000000000001
    vertex 11.850000000000074 20.524802069691113 60.0
    vertex 11.100000000000053 19.225763964014472 59.00000000000001
  endloop
endfacet
facet normal -0.2773500981126149 -0.4803844614152594 0.8320502943378449
  outer loop
    vertex 11.850000000000074 20.524802069691113 60.0
    vertex 15.697770542341388 15.697770542341287 59.00000000000001
    vertex 16.75843071412124 16.758430714121086 60.0
  endloop
endfacet
facet normal -0.27735009811261374 -0.48038446141526003 0.8320502943378447
  outer loop
    vertex 11.100000000000053 19.225763964014472 59.00000000000001
    vertex 6.1340113689298486 22.892442083050838 60.0
    vertex 5.745782801276036 21.443553343617225 59.00000000000001
  endloop
endfacet
facet normal -0.14356697510519506 -0.5357992453815594 0.8320502943378459
  outer loop
    vertex 6.1340113689298486 22.892442083050838 60.0
    vertex 11.100000000000053 19.225763964014472 59.00000000000001
    vertex 11.850000000000074 20.524802069691113 60.0
  endloop
endfacet
facet normal -0.14356697510519378 -0.5357992453815599 0.8320502943378458
  outer loop
    vertex 5.745782801276036 21.443553343617225 59.00000000000001
    vertex 1.3535839116229907e-13 23.69999999999992 60.0
    vertex 1.0151879337172431e-13 22.199999999999914 59.00000000000001
  endloop
endfacet
facet normal -1.7845793104249073e-15 -0.5547001962252259 0.8320502943378459
  outer loop
    vertex 1.3535839116229907e-13 23.69999999999992 60.0
    vertex 5.745782801276036 21.443553343617225 59.00000000000001
    vertex 6.1340113689298486 22.892442083050838 60.0
  endloop
endfacet
facet normal 0.14356697510519373 -0.5357992453815608 0.8320502943378452
  outer loop
    vertex -5.745782801275836 21.44355334361725 59.00000000000001
    vertex 1.3535839116229907e-13 23.69999999999992 60.0
    vertex -6.134011368929597 22.892442083050856 60.0
  endloop
endfacet
facet normal -1.7845793104249073e-15 -0.5547001962252259 0.8320502943378459
  outer loop
    vertex 1.3535839116229907e-13 23.69999999999992 60.0
    vertex -5.745782801275836 21.44355334361725 59.00000000000001
    vertex 1.0151879337172431e-13 22.199999999999914 59.00000000000001
  endloop
endfacet
facet normal 0.277350098112614 -0.4803844614152597 0.8320502943378449
  outer loop
    vertex -11.099999999999861 19.225763964014472 59.00000000000001
    vertex -6.134011368929597 22.892442083050856 60.0
    vertex -11.849999999999831 20.52480206969116 60.0
  endloop
endfacet
facet normal 0.14356697510519287 -0.5357992453815611 0.8320502943378453
  outer loop
    vertex -6.134011368929597 22.892442083050856 60.0
    vertex -11.099999999999861 19.225763964014472 59.00000000000001
    vertex -5.745782801275836 21.44355334361725 59.00000000000001
  endloop
endfacet
facet normal 0.39223227027636715 -0.39223227027636726 0.8320502943378445
  outer loop
    vertex -15.697770542341202 15.697770542341308 59.00000000000001
    vertex -11.849999999999831 20.52480206969116 60.0
    vertex -16.758430714121 16.758430714121154 60.0
  endloop
endfacet
facet normal 0.2773500981126123 -0.48038446141526053 0.8320502943378449
  outer loop
    vertex -11.849999999999831 20.52480206969116 60.0
    vertex -15.697770542341202 15.697770542341308 59.00000000000001
    vertex -11.099999999999861 19.225763964014472 59.00000000000001
  endloop
endfacet
facet normal 0.4803844614152603 -0.27735009811261374 0.8320502943378446
  outer loop
    vertex -19.225763964014376 11.09999999999998 59.00000000000001
    vertex -16.758430714121 16.758430714121154 60.0
    vertex -20.524802069691013 11.850000000000012 60.0
  endloop
endfacet
facet normal 0.392232270276366 -0.3922322702763684 0.8320502943378445
  outer loop
    vertex -16.758430714121 16.758430714121154 60.0
    vertex -19.225763964014376 11.09999999999998 59.00000000000001
    vertex -15.697770542341202 15.697770542341308 59.00000000000001
  endloop
endfacet
facet normal 0.5357992453815614 -0.14356697510519348 0.8320502943378449
  outer loop
    vertex -21.443553343617147 5.74578280127594 59.00000000000001
    vertex -20.524802069691013 11.850000000000012 60.0
    vertex -22.892442083050742 6.134011368929775 60.0
  endloop
endfacet
facet normal 0.4803844614152594 -0.2773500981126154 0.8320502943378446
  outer loop
    vertex -20.524802069691013 11.850000000000012 60.0
    vertex -21.443553343617147 5.74578280127594 59.00000000000001
    vertex -19.225763964014376 11.09999999999998 59.00000000000001
  endloop
endfacet
facet normal 0.5547001962252283 6.793275780078665e-16 0.8320502943378445
  outer loop
    vertex -22.19999999999983 1.127986593019159e-14 59.00000000000001
    vertex -22.892442083050742 6.134011368929775 60.0
    vertex -23.69999999999983 6.485922909860164e-14 60.0
  endloop
endfacet
facet normal 0.5357992453815608 -0.14356697510519612 0.8320502943378449
  outer loop
    vertex -22.892442083050742 6.134011368929775 60.0
    vertex -22.19999999999983 1.127986593019159e-14 59.00000000000001
    vertex -21.443553343617147 5.74578280127594 59.00000000000001
  endloop
endfacet
facet normal -0.4939855251101774 -0.8556080276944189 0.15463894699101224
  outer loop
    vertex 11.100000000000053 19.225763964014472 59.00000000000001
    vertex 3.8822856765378866 14.488887394335935 13.000000000000004
    vertex 7.500000000000048 12.990381056766504 13.000000000000004
  endloop
endfacet
facet normal -0.25570572380696704 -0.9543067530337749 0.15463894699101202
  outer loop
    vertex 3.8822856765378866 14.488887394335935 13.000000000000004
    vertex 11.100000000000053 19.225763964014472 59.00000000000001
    vertex 5.745782801276036 21.443553343617225 59.00000000000001
  endloop
endfacet
facet normal -0.25570572380696704 -0.9543067530337749 0.15463894699101202
  outer loop
    vertex 5.745782801276036 21.443553343617225 59.00000000000001
    vertex 9.305889392408061e-14 14.999999999999927 13.000000000000004
    vertex 3.8822856765378866 14.488887394335935 13.000000000000004
  endloop
endfacet
facet normal -2.234249169566018e-15 -0.987971050220355 0.15463894699101194
  outer loop
    vertex 9.305889392408061e-14 14.999999999999927 13.000000000000004
    vertex 5.745782801276036 21.443553343617225 59.00000000000001
    vertex 1.0151879337172431e-13 22.199999999999914 59.00000000000001
  endloop
endfacet
facet normal 0.2557057238069673 0.9543067530337749 0.15463894699101202
  outer loop
    vertex -5.745782801275861 -21.443553343617225 59.00000000000001
    vertex 7.613909502879323e-14 -14.999999999999904 13.000000000000004
    vertex -3.882285676537723 -14.488887394335935 13.000000000000004
  endloop
endfacet
facet normal -1.4074010516951297e-16 0.9879710502203549 0.154638946991012
  outer loop
    vertex 7.613909502879323e-14 -14.999999999999904 13.000000000000004
    vertex -5.745782801275861 -21.443553343617225 59.00000000000001
    vertex 7.049916206369744e-14 -22.199999999999903 59.00000000000001
  endloop
endfacet
facet normal -0.9543067530337752 -0.25570572380696566 0.15463894699101202
  outer loop
    vertex 21.44355334361732 5.74578280127594 59.00000000000001
    vertex 15.0 0.0 13.000000000000004
    vertex 22.2 -4.511946372076636e-14 59.00000000000001
  endloop
endfacet
facet normal -0.987971050220355 1.741658801472723e-15 0.15463894699101202
  outer loop
    vertex 15.0 0.0 13.000000000000004
    vertex 21.44355334361732 5.74578280127594 59.00000000000001
    vertex 14.48888739433603 3.8822856765377853 13.000000000000004
  endloop
endfacet
facet normal -0.5357992453815612 0.14356697510519575 0.8320502943378447
  outer loop
    vertex 22.892442083050906 -6.134011368929763 60.0
    vertex 22.2 -4.511946372076636e-14 59.00000000000001
    vertex 21.443553343617303 -5.745782801275974 59.00000000000001
  endloop
endfacet
facet normal -0.5547001962252283 1.2178189508189797e-15 0.8320502943378443
  outer loop
    vertex 22.2 -4.511946372076636e-14 59.00000000000001
    vertex 22.892442083050906 -6.134011368929763 60.0
    vertex 23.699999999999996 -4.511946372076636e-14 60.0
  endloop
endfacet
facet normal -0.5547001962252283 1.2178189508189797e-15 0.8320502943378443
  outer loop
    vertex 22.2 -4.511946372076636e-14 59.00000000000001
    vertex 22.89244208305093 6.134011368929696 60.0
    vertex 21.44355334361732 5.74578280127594 59.00000000000001
  endloop
endfacet
facet normal -0.5357992453815624 -0.14356697510519306 0.8320502943378442
  outer loop
    vertex 22.89244208305093 6.134011368929696 60.0
    vertex 22.2 -4.511946372076636e-14 59.00000000000001
    vertex 23.699999999999996 -4.511946372076636e-14 60.0
  endloop
endfacet
facet normal 0.8556080276944187 -0.4939855251101779 0.154638946991012
  outer loop
    vertex -12.990381056766418 7.499999999999987 13.000000000000004
    vertex -21.443553343617147 5.74578280127594 59.00000000000001
    vertex -14.488887394335855 3.8822856765378075 13.000000000000004
  endloop
endfacet
facet normal 0.9543067530337749 -0.25570572380696655 0.15463894699101197
  outer loop
    vertex -21.443553343617147 5.74578280127594 59.00000000000001
    vertex -12.990381056766418 7.499999999999987 13.000000000000004
    vertex -19.225763964014376 11.09999999999998 59.00000000000001
  endloop
endfacet
facet normal 0.0 0.0 -1.0
  outer loop
    vertex -17.38666487320323 4.6587428118453875 0.0
    vertex -17.386664873203234 -4.658742811845364 0.0
    vertex -18.0 0.0 0.0
  endloop
endfacet
facet normal 0.0 0.0 -1.0
  outer loop
    vertex -17.386664873203234 -4.658742811845364 0.0
    vertex -17.38666487320323 4.6587428118453875 0.0
    vertex -15.5884572681199 -8.999999999999995 0.0
  endloop
endfacet
facet normal 0.0 0.0 -1.0
  outer loop
    vertex -15.5884572681199 -8.999999999999995 0.0
    vertex -17.38666487320323 4.6587428118453875 0.0
    vertex -15.588457268119894 9.000000000000005 0.0
  endloop
endfacet
facet normal 0.0 0.0 -1.0
  outer loop
    vertex -15.5884572681199 -8.999999999999995 0.0
    vertex -15.588457268119894 9.000000000000005 0.0
    vertex -12.727922061357862 -12.727922061357843 0.0
  endloop
endfacet
facet normal 0.0 0.0 -1.0
  outer loop
    vertex -12.727922061357862 -12.727922061357843 0.0
    vertex -15.588457268119894 9.000000000000005 0.0
    vertex -12.727922061357857 12.727922061357864 0.0
  endloop
endfacet
facet normal 0.0 0.0 -1.0
  outer loop
    vertex -12.727922061357862 -12.727922061357843 0.0
    vertex -12.727922061357857 12.727922061357864 0.0
    vertex -9.000000000000009 -15.588457268119894 0.0
  endloop
endfacet
facet normal 0.0 0.0 -1.0
  outer loop
    vertex -9.000000000000009 -15.588457268119894 0.0
    vertex -12.727922061357857 12.727922061357864 0.0
    vertex -8.999999999999995 15.588457268119894 0.0
  endloop
endfacet
facet normal 0.0 0.0 -1.0
  outer loop
    vertex -9.000000000000009 -15.588457268119894 0.0
    vertex -8.999999999999995 15.588457268119894 0.0
    vertex -4.6587428118453875 -17.38666487320323 0.0
  endloop
endfacet
facet normal 0.0 0.0 -1.0
  outer loop
    vertex -4.6587428118453875 -17.38666487320323 0.0
    vertex -8.999999999999995 15.588457268119894 0.0
    vertex -4.658742811845371 17.38666487320323 0.0
  endloop
endfacet
facet normal 0.0 0.0 -1.0
  outer loop
    vertex -4.6587428118453875 -17.38666487320323 0.0
    vertex -4.658742811845371 17.38666487320323 0.0
    vertex -2.8199664825478975e-15 -18.0 0.0
  endloop
endfacet
facet normal 0.0 0.0 -1.0
  outer loop
    vertex -2.8199664825478975e-15 -18.0 0.0
    vertex -4.658742811845371 17.38666487320323 0.0
    vertex 0.0 18.00000000000001 0.0
  endloop
endfacet
facet normal 0.0 0.0 -1.0
  outer loop
    vertex -2.8199664825478975e-15 -18.0 0.0
    vertex 0.0 18.00000000000001 0.0
    vertex 4.658742811845364 -17.38666487320323 0.0
  endloop
endfacet
facet normal 0.0 0.0 -1.0
  outer loop
    vertex 4.658742811845364 -17.38666487320323 0.0
    vertex 0.0 18.00000000000001 0.0
    vertex 4.658742811845376 17.38666487320323 0.0
  endloop
endfacet
facet normal 0.0 0.0 -1.0
  outer loop
    vertex 4.658742811845364 -17.38666487320323 0.0
    vertex 4.658742811845376 17.38666487320323 0.0
    vertex 8.99999999999999 -15.588457268119905 0.0
  endloop
endfacet
facet normal 0.0 0.0 -1.0
  outer loop
    vertex 8.99999999999999 -15.588457268119905 0.0
    vertex 4.658742811845376 17.38666487320323 0.0
    vertex 9.0 15.588457268119894 0.0
  endloop
endfacet
facet normal 0.0 0.0 -1.0
  outer loop
    vertex 8.99999999999999 -15.588457268119905 0.0
    vertex 9.0 15.588457268119894 0.0
    vertex 12.727922061357859 -12.727922061357864 0.0
  endloop
endfacet
facet normal 0.0 0.0 -1.0
  outer loop
    vertex 12.727922061357859 -12.727922061357864 0.0
    vertex 9.0 15.588457268119894 0.0
    vertex 12.727922061357859 12.727922061357864 0.0
  endloop
endfacet
facet normal 0.0 0.0 -1.0
  outer loop
    vertex 12.727922061357859 -12.727922061357864 0.0
    vertex 12.727922061357859 12.727922061357864 0.0
    vertex 15.5884572681199 9.000000000000005 0.0
  endloop
endfacet
facet normal 0.0 0.0 -1.0
  outer loop
    vertex 12.727922061357859 -12.727922061357864 0.0
    vertex 15.5884572681199 9.000000000000005 0.0
    vertex 15.588457268119889 -9.000000000000005 0.0
  endloop
endfacet
facet normal 0.0 0.0 -1.0
  outer loop
    vertex 15.588457268119889 -9.000000000000005 0.0
    vertex 15.5884572681199 9.000000000000005 0.0
    vertex 17.386664873203223 -4.6587428118453875 0.0
  endloop
endfacet
facet normal 0.0 0.0 -1.0
  outer loop
    vertex 17.386664873203223 -4.6587428118453875 0.0
    vertex 15.5884572681199 9.000000000000005 0.0
    vertex 17.38666487320323 4.658742811845364 0.0
  endloop
endfacet
facet normal 0.0 0.0 -1.0
  outer loop
    vertex 17.386664873203223 -4.6587428118453875 0.0
    vertex 17.38666487320323 4.658742811845364 0.0
    vertex 18.0 0.0 0.0
  endloop
endfacet
facet normal 0.954306753033775 -0.2557057238069666 0.154638946991012
  outer loop
    vertex -14.488887394335855 3.8822856765378075 13.000000000000004
    vertex -22.19999999999983 1.127986593019159e-14 59.00000000000001
    vertex -14.999999999999831 1.127986593019159e-14 13.000000000000004
  endloop
endfacet
facet normal 0.9879710502203549 -5.324912491534074e-16 0.15463894699101202
  outer loop
    vertex -22.19999999999983 1.127986593019159e-14 59.00000000000001
    vertex -14.488887394335855 3.8822856765378075 13.000000000000004
    vertex -21.443553343617147 5.74578280127594 59.00000000000001
  endloop
endfacet
facet normal 0.2557057238069658 -0.9543067530337752 0.15463894699101188
  outer loop
    vertex -5.745782801275836 21.44355334361725 59.00000000000001
    vertex -7.499999999999865 12.990381056766525 13.000000000000004
    vertex -3.8822856765376947 14.488887394335956 13.000000000000004
  endloop
endfacet
facet normal 0.49398552511017696 -0.8556080276944189 0.15463894699101188
  outer loop
    vertex -7.499999999999865 12.990381056766525 13.000000000000004
    vertex -5.745782801275836 21.44355334361725 59.00000000000001
    vertex -11.099999999999861 19.225763964014472 59.00000000000001
  endloop
endfacet
facet normal -0.27735009811261335 0.4803844614152624 0.8320502943378435
  outer loop
    vertex 11.849999999999996 -20.524802069691138 60.0
    vertex 15.697770542341347 -15.697770542341308 59.00000000000001
    vertex 11.10000000000002 -19.225763964014472 59.00000000000001
  endloop
endfacet
facet normal -0.39223227027636687 0.39223227027636787 0.8320502943378444
  outer loop
    vertex 15.697770542341347 -15.697770542341308 59.00000000000001
    vertex 11.849999999999996 -20.524802069691138 60.0
    vertex 16.75843071412116 -16.758430714121143 60.0
  endloop
endfacet
facet normal -0.14356697510519306 0.535799245381563 0.8320502943378438
  outer loop
    vertex 6.134011368929758 -22.892442083050838 60.0
    vertex 7.049916206369744e-14 -22.199999999999903 59.00000000000001
    vertex 3.101963130802687e-14 -23.699999999999903 60.0
  endloop
endfacet
facet normal -2.775301690641893e-16 0.5547001962252289 0.8320502943378439
  outer loop
    vertex 7.049916206369744e-14 -22.199999999999903 59.00000000000001
    vertex 6.134011368929758 -22.892442083050838 60.0
    vertex 5.745782801276002 -21.443553343617225 59.00000000000001
  endloop
endfacet
facet normal -0.3922322702763663 0.39223227027636837 0.8320502943378444
  outer loop
    vertex 16.75843071412116 -16.758430714121143 60.0
    vertex 19.225763964014526 -11.09999999999998 59.00000000000001
    vertex 15.697770542341347 -15.697770542341308 59.00000000000001
  endloop
endfacet
facet normal -0.48038446141525903 0.2773500981126144 0.832050294337845
  outer loop
    vertex 19.225763964014526 -11.09999999999998 59.00000000000001
    vertex 16.75843071412116 -16.758430714121143 60.0
    vertex 20.52480206969118 -11.849999999999996 60.0
  endloop
endfacet
facet normal -0.48038446141525887 0.277350098112615 0.832050294337845
  outer loop
    vertex 20.52480206969118 -11.849999999999996 60.0
    vertex 21.443553343617303 -5.745782801275974 59.00000000000001
    vertex 19.225763964014526 -11.09999999999998 59.00000000000001
  endloop
endfacet
facet normal -0.5357992453815613 0.1435669751051955 0.8320502943378447
  outer loop
    vertex 21.443553343617303 -5.745782801275974 59.00000000000001
    vertex 20.52480206969118 -11.849999999999996 60.0
    vertex 22.892442083050906 -6.134011368929763 60.0
  endloop
endfacet
facet normal -2.2021671998886682e-15 -0.9879710502203549 0.1546389469910119
  outer loop
    vertex 1.0151879337172431e-13 22.199999999999914 59.00000000000001
    vertex -3.8822856765376947 14.488887394335956 13.000000000000004
    vertex 9.305889392408061e-14 14.999999999999927 13.000000000000004
  endloop
endfacet
facet normal 0.25570572380696577 -0.9543067530337751 0.15463894699101188
  outer loop
    vertex -3.8822856765376947 14.488887394335956 13.000000000000004
    vertex 1.0151879337172431e-13 22.199999999999914 59.00000000000001
    vertex -5.745782801275836 21.44355334361725 59.00000000000001
  endloop
endfacet
facet normal 0.27735009811261613 0.48038446141525987 0.832050294337844
  outer loop
    vertex -11.849999999999916 -20.524802069691088 60.0
    vertex -15.697770542341207 -15.697770542341287 59.00000000000001
    vertex -16.75843071412107 -16.758430714121065 60.0
  endloop
endfacet
facet normal 0.3922322702763671 0.3922322702763685 0.8320502943378442
  outer loop
    vertex -15.697770542341207 -15.697770542341287 59.00000000000001
    vertex -11.849999999999916 -20.524802069691088 60.0
    vertex -11.099999999999872 -19.22576396401445 59.00000000000001
  endloop
endfacet
facet normal 0.14356697510519645 0.5357992453815621 0.832050294337844
  outer loop
    vertex -6.134011368929685 -22.89244208305081 60.0
    vertex -11.099999999999872 -19.22576396401445 59.00000000000001
    vertex -11.849999999999916 -20.524802069691088 60.0
  endloop
endfacet
facet normal 0.27735009811261396 0.48038446141526103 0.832050294337844
  outer loop
    vertex -11.099999999999872 -19.22576396401445 59.00000000000001
    vertex -6.134011368929685 -22.89244208305081 60.0
    vertex -5.745782801275861 -21.443553343617225 59.00000000000001
  endloop
endfacet
facet normal -0.14356697510519306 0.535799245381563 0.8320502943378438
  outer loop
    vertex 6.134011368929758 -22.892442083050838 60.0
    vertex 11.10000000000002 -19.225763964014472 59.00000000000001
    vertex 5.745782801276002 -21.443553343617225 59.00000000000001
  endloop
endfacet
facet normal -0.27735009811261435 0.4803844614152619 0.8320502943378437
  outer loop
    vertex 11.10000000000002 -19.225763964014472 59.00000000000001
    vertex 6.134011368929758 -22.892442083050838 60.0
    vertex 11.849999999999996 -20.524802069691138 60.0
  endloop
endfacet
facet normal 0.5357992453815631 0.1435669751051927 0.832050294337844
  outer loop
    vertex -22.892442083050764 -6.134011368929659 60.0
    vertex -22.19999999999983 1.127986593019159e-14 59.00000000000001
    vertex -23.69999999999983 6.485922909860164e-14 60.0
  endloop
endfacet
facet normal 0.5547001962252283 6.793275780078665e-16 0.8320502943378445
  outer loop
    vertex -22.19999999999983 1.127986593019159e-14 59.00000000000001
    vertex -22.892442083050764 -6.134011368929659 60.0
    vertex -21.44355334361715 -5.745782801275928 59.00000000000001
  endloop
endfacet
facet normal 0.48038446141526214 0.2773500981126126 0.8320502943378439
  outer loop
    vertex -20.524802069691063 -11.849999999999905 60.0
    vertex -21.44355334361715 -5.745782801275928 59.00000000000001
    vertex -22.892442083050764 -6.134011368929659 60.0
  endloop
endfacet
facet normal 0.5357992453815624 0.14356697510519517 0.832050294337844
  outer loop
    vertex -21.44355334361715 -5.745782801275928 59.00000000000001
    vertex -20.524802069691063 -11.849999999999905 60.0
    vertex -19.225763964014376 -11.099999999999957 59.00000000000001
  endloop
endfacet
facet normal 0.3922322702763692 0.39223227027636626 0.832050294337844
  outer loop
    vertex -16.75843071412107 -16.758430714121065 60.0
    vertex -19.225763964014376 -11.099999999999957 59.00000000000001
    vertex -20.524802069691063 -11.849999999999905 60.0
  endloop
endfacet
facet normal 0.4803844614152608 0.27735009811261524 0.832050294337844
  outer loop
    vertex -19.225763964014376 -11.099999999999957 59.00000000000001
    vertex -16.75843071412107 -16.758430714121065 60.0
    vertex -15.697770542341207 -15.697770542341287 59.00000000000001
  endloop
endfacet
facet normal -0.6986010292268082 -0.698601029226808 0.15463894699101208
  outer loop
    vertex 15.697770542341388 15.697770542341287 59.00000000000001
    vertex 7.500000000000048 12.990381056766504 13.000000000000004
    vertex 10.606601717798245 10.60660171779815 13.000000000000004
  endloop
endfacet
facet normal -0.4939855251101774 -0.8556080276944188 0.15463894699101222
  outer loop
    vertex 7.500000000000048 12.990381056766504 13.000000000000004
    vertex 15.697770542341388 15.697770542341287 59.00000000000001
    vertex 11.100000000000053 19.225763964014472 59.00000000000001
  endloop
endfacet
facet normal -0.8556080276944179 0.4939855251101789 0.15463894699101194
  outer loop
    vertex 19.225763964014526 -11.09999999999998 59.00000000000001
    vertex 10.606601717798233 -10.60660171779815 13.000000000000004
    vertex 15.697770542341347 -15.697770542341308 59.00000000000001
  endloop
endfacet
facet normal -0.6986010292268073 0.6986010292268088 0.154638946991012
  outer loop
    vertex 10.606601717798233 -10.60660171779815 13.000000000000004
    vertex 19.225763964014526 -11.09999999999998 59.00000000000001
    vertex 12.990381056766587 -7.499999999999964 13.000000000000004
  endloop
endfacet
facet normal 0.0 0.0 1.0
  outer loop
    vertex -14.488887394335864 -3.882285676537774 13.000000000000004
    vertex -14.488887394335855 3.8822856765378075 13.000000000000004
    vertex -14.999999999999831 1.127986593019159e-14 13.000000000000004
  endloop
endfacet
facet normal 0.0 0.0 1.0
  outer loop
    vertex -14.488887394335855 3.8822856765378075 13.000000000000004
    vertex -14.488887394335864 -3.882285676537774 13.000000000000004
    vertex -12.990381056766427 -7.499999999999941 13.000000000000004
  endloop
endfacet
facet normal 0.0 0.0 1.0
  outer loop
    vertex -14.488887394335855 3.8822856765378075 13.000000000000004
    vertex -12.990381056766427 -7.499999999999941 13.000000000000004
    vertex -12.990381056766418 7.499999999999987 13.000000000000004
  endloop
endfacet
facet normal 0.0 0.0 1.0
  outer loop
    vertex -12.990381056766418 7.499999999999987 13.000000000000004
    vertex -12.990381056766427 -7.499999999999941 13.000000000000004
    vertex -10.606601717798082 -10.606601717798139 13.000000000000004
  endloop
endfacet
facet normal 0.0 0.0 1.0
  outer loop
    vertex -12.990381056766418 7.499999999999987 13.000000000000004
    vertex -10.606601717798082 -10.606601717798139 13.000000000000004
    vertex -10.606601717798064 10.606601717798172 13.000000000000004
  endloop
endfacet
facet normal 0.0 0.0 1.0
  outer loop
    vertex -10.606601717798064 10.606601717798172 13.000000000000004
    vertex -10.606601717798082 -10.606601717798139 13.000000000000004
    vertex -7.4999999999998845 -12.990381056766491 13.000000000000004
  endloop
endfacet
facet normal 0.0 0.0 1.0
  outer loop
    vertex -10.606601717798064 10.606601717798172 13.000000000000004
    vertex -7.4999999999998845 -12.990381056766491 13.000000000000004
    vertex -7.499999999999865 12.990381056766525 13.000000000000004
  endloop
endfacet
facet normal 0.0 0.0 1.0
  outer loop
    vertex -7.499999999999865 12.990381056766525 13.000000000000004
    vertex -7.4999999999998845 -12.990381056766491 13.000000000000004
    vertex -3.882285676537723 -14.488887394335935 13.000000000000004
  endloop
endfacet
facet normal 0.0 0.0 1.0
  outer loop
    vertex -7.499999999999865 12.990381056766525 13.000000000000004
    vertex -3.882285676537723 -14.488887394335935 13.000000000000004
    vertex -3.8822856765376947 14.488887394335956 13.000000000000004
  endloop
endfacet
facet normal 0.0 0.0 1.0
  outer loop
    vertex -3.8822856765376947 14.488887394335956 13.000000000000004
    vertex -3.882285676537723 -14.488887394335935 13.000000000000004
    vertex 7.613909502879323e-14 -14.999999999999904 13.000000000000004
  endloop
endfacet
facet normal 0.0 0.0 1.0
  outer loop
    vertex -3.8822856765376947 14.488887394335956 13.000000000000004
    vertex 7.613909502879323e-14 -14.999999999999904 13.000000000000004
    vertex 9.305889392408061e-14 14.999999999999927 13.000000000000004
  endloop
endfacet
facet normal 0.0 0.0 1.0
  outer loop
    vertex 9.305889392408061e-14 14.999999999999927 13.000000000000004
    vertex 7.613909502879323e-14 -14.999999999999904 13.000000000000004
    vertex 3.8822856765378586 -14.488887394335935 13.000000000000004
  endloop
endfacet
facet normal 0.0 0.0 1.0
  outer loop
    vertex 9.305889392408061e-14 14.999999999999927 13.000000000000004
    vertex 3.8822856765378586 -14.488887394335935 13.000000000000004
    vertex 3.8822856765378866 14.488887394335935 13.000000000000004
  endloop
endfacet
facet normal 0.0 0.0 1.0
  outer loop
    vertex 3.8822856765378866 14.488887394335935 13.000000000000004
    vertex 3.8822856765378586 -14.488887394335935 13.000000000000004
    vertex 7.500000000000026 -12.990381056766504 13.000000000000004
  endloop
endfacet
facet normal 0.0 0.0 1.0
  outer loop
    vertex 3.8822856765378866 14.488887394335935 13.000000000000004
    vertex 7.500000000000026 -12.990381056766504 13.000000000000004
    vertex 7.500000000000048 12.990381056766504 13.000000000000004
  endloop
endfacet
facet normal 0.0 0.0 1.0
  outer loop
    vertex 7.500000000000048 12.990381056766504 13.000000000000004
    vertex 7.500000000000026 -12.990381056766504 13.000000000000004
    vertex 10.606601717798233 -10.60660171779815 13.000000000000004
  endloop
endfacet
facet normal 0.0 0.0 1.0
  outer loop
    vertex 7.500000000000048 12.990381056766504 13.000000000000004
    vertex 10.606601717798233 -10.60660171779815 13.000000000000004
    vertex 10.606601717798245 10.60660171779815 13.000000000000004
  endloop
endfacet
facet normal 0.0 0.0 1.0
  outer loop
    vertex 10.606601717798245 10.60660171779815 13.000000000000004
    vertex 10.606601717798233 -10.60660171779815 13.000000000000004
    vertex 12.990381056766587 -7.499999999999964 13.000000000000004
  endloop
endfacet
facet normal 0.0 0.0 1.0
  outer loop
    vertex 10.606601717798245 10.60660171779815 13.000000000000004
    vertex 12.990381056766587 -7.499999999999964 13.000000000000004
    vertex 12.9903810567666 7.499999999999964 13.000000000000004
  endloop
endfacet
facet normal 0.0 0.0 1.0
  outer loop
    vertex 12.9903810567666 7.499999999999964 13.000000000000004
    vertex 12.990381056766587 -7.499999999999964 13.000000000000004
    vertex 14.488887394336018 -3.8822856765377964 13.000000000000004
  endloop
endfacet
facet normal 0.0 0.0 1.0
  outer loop
    vertex 12.9903810567666 7.499999999999964 13.000000000000004
    vertex 14.488887394336018 -3.8822856765377964 13.000000000000004
    vertex 14.48888739433603 3.8822856765377853 13.000000000000004
  endloop
endfacet
facet normal 0.0 0.0 1.0
  outer loop
    vertex 14.48888739433603 3.8822856765377853 13.000000000000004
    vertex 14.488887394336018 -3.8822856765377964 13.000000000000004
    vertex 15.0 0.0 13.000000000000004
  endloop
endfacet
facet normal -0.987971050220355 1.859206734332237e-15 0.15463894699101205
  outer loop
    vertex 22.2 -4.511946372076636e-14 59.00000000000001
    vertex 14.488887394336018 -3.8822856765377964 13.000000000000004
    vertex 21.443553343617303 -5.745782801275974 59.00000000000001
  endloop
endfacet
facet normal -0.9543067530337744 0.2557057238069685 0.154638946991012
  outer loop
    vertex 14.488887394336018 -3.8822856765377964 13.000000000000004
    vertex 22.2 -4.511946372076636e-14 59.00000000000001
    vertex 15.0 0.0 13.000000000000004
  endloop
endfacet
facet normal -0.8556080276944186 -0.4939855251101777 0.1546389469910121
  outer loop
    vertex 19.225763964014558 11.099999999999957 59.00000000000001
    vertex 10.606601717798245 10.60660171779815 13.000000000000004
    vertex 12.9903810567666 7.499999999999964 13.000000000000004
  endloop
endfacet
facet normal -0.6986010292268081 -0.698601029226808 0.15463894699101208
  outer loop
    vertex 10.606601717798245 10.60660171779815 13.000000000000004
    vertex 19.225763964014558 11.099999999999957 59.00000000000001
    vertex 15.697770542341388 15.697770542341287 59.00000000000001
  endloop
endfacet
facet normal 1.67988399087998e-15 0.5547001962252287 0.832050294337844
  outer loop
    vertex 3.101963130802687e-14 -23.699999999999903 60.0
    vertex -5.745782801275861 -21.443553343617225 59.00000000000001
    vertex -6.134011368929685 -22.89244208305081 60.0
  endloop
endfacet
facet normal 0.14356697510519426 0.5357992453815625 0.8320502943378439
  outer loop
    vertex -5.745782801275861 -21.443553343617225 59.00000000000001
    vertex 3.101963130802687e-14 -23.699999999999903 60.0
    vertex 7.049916206369744e-14 -22.199999999999903 59.00000000000001
  endloop
endfacet
facet normal 0.8556080276944189 0.49398552511017757 0.15463894699101205
  outer loop
    vertex -12.990381056766427 -7.499999999999941 13.000000000000004
    vertex -21.44355334361715 -5.745782801275928 59.00000000000001
    vertex -19.225763964014376 -11.099999999999957 59.00000000000001
  endloop
endfacet
facet normal 0.954306753033775 0.2557057238069665 0.154638946991012
  outer loop
    vertex -21.44355334361715 -5.745782801275928 59.00000000000001
    vertex -12.990381056766427 -7.499999999999941 13.000000000000004
    vertex -14.488887394335864 -3.882285676537774 13.000000000000004
  endloop
endfacet
facet normal -0.9543067530337752 -0.25570572380696566 0.15463894699101202
  outer loop
    vertex 21.44355334361732 5.74578280127594 59.00000000000001
    vertex 12.9903810567666 7.499999999999964 13.000000000000004
    vertex 14.48888739433603 3.8822856765377853 13.000000000000004
  endloop
endfacet
facet normal -0.8556080276944187 -0.49398552511017774 0.15463894699101213
  outer loop
    vertex 12.9903810567666 7.499999999999964 13.000000000000004
    vertex 21.44355334361732 5.74578280127594 59.00000000000001
    vertex 19.225763964014558 11.099999999999957 59.00000000000001
  endloop
endfacet
facet normal 0.4939855251101783 0.8556080276944183 0.15463894699101197
  outer loop
    vertex -11.099999999999872 -19.22576396401445 59.00000000000001
    vertex -3.882285676537723 -14.488887394335935 13.000000000000004
    vertex -7.4999999999998845 -12.990381056766491 13.000000000000004
  endloop
endfacet
facet normal 0.2557057238069674 0.9543067530337748 0.15463894699101202
  outer loop
    vertex -3.882285676537723 -14.488887394335935 13.000000000000004
    vertex -11.099999999999872 -19.22576396401445 59.00000000000001
    vertex -5.745782801275861 -21.443553343617225 59.00000000000001
  endloop
endfacet
facet normal -1.1732858032193723e-16 0.9879710502203549 0.15463894699101197
  outer loop
    vertex 7.049916206369744e-14 -22.199999999999903 59.00000000000001
    vertex 3.8822856765378586 -14.488887394335935 13.000000000000004
    vertex 7.613909502879323e-14 -14.999999999999904 13.000000000000004
  endloop
endfacet
facet normal -0.2557057238069656 0.9543067530337752 0.15463894699101205
  outer loop
    vertex 3.8822856765378586 -14.488887394335935 13.000000000000004
    vertex 7.049916206369744e-14 -22.199999999999903 59.00000000000001
    vertex 5.745782801276002 -21.443553343617225 59.00000000000001
  endloop
endfacet
facet normal -0.8596480034436279 0.4963180061965051 -0.12113524219033295
  outer loop
    vertex -21.823840175367824 12.600000000000044 59.00000000000001
    vertex -12.727922061357857 12.727922061357864 0.0
    vertex -15.588457268119894 9.000000000000005 0.0
  endloop
endfacet
facet normal -0.7018996556130683 0.7018996556130696 -0.12113524219033293
  outer loop
    vertex -12.727922061357857 12.727922061357864 0.0
    vertex -21.823840175367824 12.600000000000044 59.00000000000001
    vertex -17.819090885900962 17.819090885901023 59.00000000000001
  endloop
endfacet
facet normal 0.39223227027636076 -0.3922322702763617 0.8320502943378504
  outer loop
    vertex 17.819090885900994 -17.819090885901 59.00000000000001
    vertex 20.52480206969118 -11.849999999999996 60.0
    vertex 16.75843071412116 -16.758430714121143 60.0
  endloop
endfacet
facet normal 0.48038446141525637 -0.2773500981126124 0.8320502943378474
  outer loop
    vertex 20.52480206969118 -11.849999999999996 60.0
    vertex 17.819090885900994 -17.819090885901 59.00000000000001
    vertex 21.823840175367852 -12.6 59.00000000000001
  endloop
endfacet
endsolid shotglass 01
